# AST/ASF file generated using VICON BodyLanguage
# -----------------------------------------------
:version 1.10
:name VICON
:units
  mass 1.0
  length 0.45
  angle deg
:documentation
   .ast/.asf automatically generated from VICON data using
   VICON BodyBuilder and BodyLanguage model FoxedUp or BRILLIANT.MOD
:root
   order TX TY TZ RX RY RZ
   axis XYZ
   position 0 0 0  
   orientation 0 0 0 
:bonedata
  begin
     id 1 
     name lhipjoint
     direction 0.627457 -0.725269 0.283342 
     length 2.53237 
     axis 0 0 0  XYZ
  end
  begin
     id 2 
     name lfemur
     direction 0.34202 -0.939693 0  
     length 7.32496  
     axis 0 0 20  XYZ
    dof rx ry rz
    limits (-160.0 20.0)
           (-70.0 70.0)
           (-60.0 70.0)
  end
  begin
     id 3 
     name ltibia
     direction 0.34202 -0.939693 0   
     length 7.69674   
     axis 0 0 20   XYZ
    dof rx
    limits (-10.0 170.0)
  end
  begin
     id 4 
     name lfoot
     direction 0.127289 -0.349722 0.928166   
     length 1.8612   
     axis -90 7.62852e-016 20   XYZ
    dof rx rz
    limits (-45.0 90.0)
           (-70.0 20.0)
  end
  begin
     id 5 
     name ltoes
     direction 1.53561e-011 -4.21864e-011 1   
     length 0.925608   
     axis -90 7.62852e-016 20   XYZ
    dof rx
    limits (-90.0 20.0)
  end
  begin
     id 6 
     name rhipjoint
     direction -0.609094 -0.738725 0.288599   
     length 2.48624  
     axis 0 0 0  XYZ 
  end
  begin
     id 7 
     name rfemur
     direction -0.34202 -0.939693 0   
     length 7.44259   
     axis 0 0 -20   XYZ
    dof rx ry rz
    limits (-160.0 20.0)
           (-70.0 70.0)
           (-70.0 60.0)
  end
  begin
     id 8 
     name rtibia
     direction -0.34202 -0.939693 0   
     length 7.7781   
     axis 0 0 -20   XYZ
    dof rx
    limits (-10.0 170.0)
 end
 begin
     id 9 
     name rfoot
     direction -0.107015 -0.294021 0.949789   
     length 2.14741  
     axis -90 -7.62852e-016 -20   XYZ
    dof rx rz
    limits (-45.0 90.0)
           (-20.0 70.0)
  end
  begin
     id 10 
     name rtoes
     direction -1.53497e-011 -4.21924e-011 1   
     length 1.0706   
     axis -90 -7.62852e-016 -20   XYZ
    dof rx
    limits (-90.0 20.0)
  end
  begin
     id 11 
     name lowerback
     direction -0.0142066 0.998112 -0.0597545   
     length 1.86627   
     axis 0 0 0   XYZ
    dof rx ry rz
    limits (-20.0 45.0)
           (-30.0 30.0)
           (-30.0 30.0)
  end
  begin
     id 12 
     name upperback
     direction 0.00547294 0.999744 0.0219437   
     length 1.86272   
     axis 0 0 0   XYZ
    dof rx ry rz
    limits (-20.0 45.0)
           (-30.0 30.0)
           (-30.0 30.0)
  end
  begin
     id 13 
     name thorax
     direction 0.0116162 0.998704 0.0495538   
     length 1.8703   
     axis 0 0 0   XYZ
    dof rx ry rz
    limits (-20.0 45.0)
           (-30.0 30.0)
           (-30.0 30.0)
  end
  begin
     id 14 
     name lowerneck
     direction -0.0106574 0.998739 0.0490586   
     length 1.8074   
     axis 0 0 0   XYZ
    dof rx ry rz
    limits (-20.0 45.0)
           (-30.0 30.0)
           (-30.0 30.0)
  end
  begin
     id 15 
     name upperneck
     direction 0.030527 0.976587 -0.212944   
     length 1.80681   
     axis 0 0 0   XYZ
    dof rx ry rz
    limits (-20.0 45.0)
           (-30.0 30.0)
           (-30.0 30.0)
  end
  begin
     id 16
     name head
     direction 0.00869225 0.997035 -0.0764531  
     length 1.8313  
     axis 0 0 0   XYZ
    dof rx ry rz
    limits (-20.0 45.0)
           (-30.0 30.0)
           (-30.0 30.0)
  end
  begin
     id 17 
     name lclavicle
     direction 0.915958 0.399447 0.0382386  
     length 3.78965  
     axis 0 0 0   XYZ
    dof ry rz
    limits (-20.0 10.0)
           (0.0 20.0)
  end
  begin
     id 18 
     name lhumerus
     direction 1 -4.48967e-011 3.19303e-027   
     length 4.78095   
     axis -180 -30 -90   XYZ
    dof rx ry rz
    limits (-60.0 90.0)
           (-90.0 90.0)
           (-90.0 90.0)
  end
  begin
     id 19
     name lradius
     direction 1 -4.48967e-011 -3.77974e-027   
     length 3.58615   
     axis -180 -30 -90   XYZ
    dof rx
    limits (-10.0 170.0)
  end
  begin
     id 20
     name lwrist
     direction 1 -4.48927e-011 1.2807e-027   
     length 1.79307   
     axis 1.91374e-015 90 90   XYZ
    dof ry
    limits (-180.0 0.0)
 end
  begin
     id 21 
     name lhand
     direction 1 -4.49036e-011 2.5614e-027   
     length 0.659812   
     axis -1.63439e-015 90 90   XYZ
    dof rx rz
    limits (-90.0 90.0)
           (-45.0 45.0)
  end
  begin
     id 22 
     name lfingers
     direction 1 -4.49052e-011 5.1228e-027   
     length 0.531957   
     axis -3.26879e-015 90 90   XYZ
    dof rx
    limits (0.0 90.0)
  end
  begin
     id 23
     name lthumb
     direction 0.707107 -6.35012e-011 0.707107   
     length 0.763787   
     axis -90 45 2.85299e-015   XYZ
    dof rx rz
    limits (-45.0 45.0)
           (-45.0 45.0)
  end
  begin
     id 24 
     name rclavicle
     direction -0.895351 0.435135 0.0948887   
     length 3.70497  
     axis 0 0 0   XYZ 
    dof ry rz
    limits (-10.0 20.0)
           (-20.0 0.0)
  end
  begin
     id 25 
     name rhumerus
     direction -1 -4.48971e-011 2.38946e-027  
     length 4.48913   
     axis -180 30 90   XYZ
    dof rx ry rz
    limits (-90.0 60.0)
           (-90.0 90.0)
           (-90.0 90.0)
  end
  begin
     id 26 
     name rradius
     direction -1 -4.4895e-011 4.38668e-027   
     length 3.7051   
     axis -180 30 90   XYZ
    dof rx
    limits (-10.0 170.0)
  end
  begin
     id 27 
     name rwrist
     direction -1 -4.49007e-011 1.2807e-027   
     length 1.85255   
     axis 1.91374e-015 -90 -90   XYZ
    dof ry
    limits (-180.0 0.0)
  end
  begin
     id 28
     name rhand
     direction -1 -4.48851e-011 2.5614e-027   
     length 0.449136   
     axis -1.63439e-015 -90 -90   XYZ
    dof rx rz
    limits (-90.0 90.0)
           (-45.0 45.0)
  end
  begin
     id 29
     name rfingers
     direction -1 -4.49128e-011 5.1228e-027   
     length 0.362105   
     axis -3.26879e-015 -90 -90   XYZ
    dof rx
    limits (0.0 90.0)
  end
  begin
     id 30
     name rthumb
     direction -0.707107 -6.34851e-011 0.707107   
     length 0.519912   
     axis -90 -45 -2.85299e-015   XYZ
    dof rx rz
    limits (-45.0 45.0)
           (-45.0 45.0)
  end
:hierarchy
  begin
    root lhipjoint rhipjoint lowerback
    lhipjoint lfemur
    lfemur ltibia
    ltibia lfoot
    lfoot ltoes
    rhipjoint rfemur
    rfemur rtibia
    rtibia rfoot
    rfoot rtoes
    lowerback upperback
    upperback thorax
    thorax lowerneck lclavicle rclavicle
    lowerneck upperneck
    upperneck head
    lclavicle lhumerus
    lhumerus lradius
    lradius lwrist
    lwrist lhand lthumb
    lhand lfingers
    rclavicle rhumerus
    rhumerus rradius
    rradius rwrist
    rwrist rhand rthumb
    rhand rfingers
  end

#!OML:ASF I:\Actors\actors\Patient Classification 2\Patient 1\Session 1\actor1.ASF
:FULLY-SPECIFIED
:DEGREES
1
root -0.94422 18.1968 5.7806 1.89506 -1.45711 -5.18501
lowerback 1.97149 0.291252 3.10326
upperback -2.26097 0.53983 1.27639
thorax -3.41709 0.208086 -0.45154
lowerneck -7.9045 -2.38526 -2.44557
upperneck 16.8316 -3.70317 4.53242
head 6.54625 -1.58491 1.55684
rclavicle -1.55797e-014 1.45113e-014
rhumerus -47.3664 -1.88618 -88.4823
rradius 40.0783
rwrist 18.6917
rhand -7.72568 -26.528
rfingers 7.12502
rthumb 18.1728 -55.6991
lclavicle -1.55797e-014 1.45113e-014
lhumerus -43.0259 -0.403446 93.0079
lradius 37.7599
lwrist -5.84461
lhand -4.08199 -23.7152
lfingers 7.12502
lthumb 21.6752 5.09146
rfemur 0 0 0
rtibia 0
rfoot 0 0
rtoes 0
lfemur 15.7262 -7.24831 -11.617
ltibia -18.3284
lfoot -3.93242 19.6427
ltoes -9.27772
2
root -0.944477 18.1951 5.78011 1.8852 -1.46666 -5.16206
lowerback 1.96234 0.29736 3.07451
upperback -2.24284 0.545899 1.27224
thorax -3.3931 0.212228 -0.439954
lowerneck -7.98217 -2.37597 -2.55515
upperneck 16.8545 -3.68912 4.61842
head 6.57018 -1.57671 1.60295
rclavicle -8.07563e-015 1.53064e-014
rhumerus -47.3405 -1.91868 -88.4461
rradius 40.0562
rwrist 18.7446
rhand -7.80773 -26.4089
rfingers 7.12502
rthumb 18.0938 -55.5873
lclavicle -8.07563e-015 1.53064e-014
lhumerus -42.9745 -0.396648 93.0295
lradius 37.726
lwrist -5.8364
lhand -4.1091 -23.7228
lfingers 7.12502
lthumb 21.6492 5.08688
rfemur 0 0 0
rtibia 0
rfoot 0 0
rtoes 0
lfemur 15.7255 -7.22997 -11.6419
ltibia -18.3127
lfoot -3.92792 19.6294
ltoes -9.32962
3
root -0.944784 18.1949 5.78003 1.88649 -1.47612 -5.14831
lowerback 1.95311 0.303661 3.0442
upperback -2.24551 0.552859 1.2706
thorax -3.39061 0.21644 -0.424977
lowerneck -8.01715 -2.36231 -2.68496
upperneck 16.9131 -3.68197 4.78232
head 6.59997 -1.56711 1.67742
rclavicle 8.7341e-015 2.78299e-015
rhumerus -47.3501 -1.93026 -88.4256
rradius 40.0625
rwrist 18.7293
rhand -7.96102 -26.4138
rfingers 7.12502
rthumb 17.9463 -55.6058
lclavicle 8.7341e-015 2.78299e-015
lhumerus -42.9703 -0.382747 93.0425
lradius 37.6991
lwrist -5.85315
lhand -4.12151 -23.7712
lfingers 7.12502
lthumb 21.6373 5.0398
rfemur 0 0 0
rtibia 0
rfoot 0 0
rtoes 0
lfemur 15.7315 -7.21008 -11.6577
ltibia -18.3221
lfoot -3.89479 19.6405
ltoes -9.45937
4
root -0.944895 18.1958 5.78026 1.90517 -1.48192 -5.1566
lowerback 1.92409 0.304559 3.04873
upperback -2.25706 0.55316 1.26592
thorax -3.38607 0.216378 -0.432174
lowerneck -7.99451 -2.34012 -2.69139
upperneck 16.9044 -3.65609 4.81394
head 6.59283 -1.55292 1.69101
rclavicle -4.13721e-015 1.90833e-014
rhumerus -47.38 -1.9101 -88.449
rradius 40.1056
rwrist 18.6196
rhand -8.00564 -26.5658
rfingers 7.12502
rthumb 17.9034 -55.7617
lclavicle -4.13721e-015 1.90833e-014
lhumerus -42.9609 -0.327312 93.0093
lradius 37.637
lwrist -5.93242
lhand -4.14254 -23.8659
lfingers 7.12502
lthumb 21.6171 4.94745
rfemur 0 0 0
rtibia 0
rfoot 0 0
rtoes 0
lfemur 15.7148 -7.20891 -11.647
ltibia -18.3195
lfoot -3.90078 19.6568
ltoes -9.4095
5
root -0.944999 18.1958 5.77994 1.91173 -1.48155 -5.161
lowerback 1.89204 0.300323 3.04363
upperback -2.25047 0.54585 1.26899
thorax -3.36141 0.213265 -0.425611
lowerneck -7.98266 -2.32152 -2.64946
upperneck 16.8681 -3.62786 4.77155
head 6.57653 -1.54063 1.67282
rclavicle -2.26118e-015 -1.05356e-014
rhumerus -47.3754 -1.85292 -88.4592
rradius 40.1196
rwrist 18.5486
rhand -7.97664 -26.5656
rfingers 7.12502
rthumb 17.9313 -55.759
lclavicle -2.26118e-015 -1.05356e-014
lhumerus -42.9213 -0.267647 92.9838
lradius 37.5774
lwrist -6.03305
lhand -4.17324 -23.9189
lfingers 7.12502
lthumb 21.5876 4.89782
rfemur 0 0 0
rtibia 0
rfoot 0 0
rtoes 0
lfemur 15.7037 -7.21723 -11.6399
ltibia -18.3161
lfoot -3.91829 19.6668
ltoes -9.46619
6
root -0.945189 18.1962 5.77937 1.91037 -1.47955 -5.15908
lowerback 1.86635 0.295122 3.01737
upperback -2.23648 0.536853 1.28099
thorax -3.33297 0.210057 -0.397991
lowerneck -7.98355 -2.30901 -2.62337
upperneck 16.8541 -3.60634 4.72865
head 6.57012 -1.53216 1.65647
rclavicle 1.26104e-015 -2.38542e-015
rhumerus -47.3435 -1.8147 -88.4293
rradius 40.0904
rwrist 18.5611
rhand -7.96155 -26.412
rfingers 7.12502
rthumb 17.9458 -55.6041
lclavicle 1.26104e-015 -2.38542e-015
lhumerus -42.8909 -0.242559 92.9908
lradius 37.5691
lwrist -6.07592
lhand -4.17049 -23.929
lfingers 7.12502
lthumb 21.5902 4.88749
rfemur 0 0 0
rtibia 0
rfoot 0 0
rtoes 0
lfemur 15.6962 -7.20641 -11.6377
ltibia -18.3149
lfoot -3.91763 19.6634
ltoes -9.62063
7
root -0.945404 18.1969 5.77874 1.92173 -1.48444 -5.16791
lowerback 1.86005 0.295233 3.01994
upperback -2.24381 0.537054 1.28174
thorax -3.33697 0.209996 -0.398632
lowerneck -7.97761 -2.30814 -2.59482
upperneck 16.8572 -3.60248 4.68817
head 6.56871 -1.53181 1.63914
rclavicle -5.00689e-015 -5.36719e-015
rhumerus -47.3471 -1.81139 -88.414
rradius 40.0918
rwrist 18.5585
rhand -7.98966 -26.35
rfingers 7.12502
rthumb 17.9188 -55.5446
lclavicle -5.00689e-015 -5.36719e-015
lhumerus -42.8873 -0.239105 92.9895
lradius 37.5736
lwrist -6.06555
lhand -4.16112 -23.9611
lfingers 7.12502
lthumb 21.5992 4.85429
rfemur 0 0 0
rtibia 0
rfoot 0 0
rtoes 0
lfemur 15.6784 -7.23232 -11.6252
ltibia -18.3163
lfoot -3.93594 19.6893
ltoes -9.41423
8
root -0.945569 18.1968 5.77824 1.92874 -1.49499 -5.18131
lowerback 1.86936 0.300289 3.04339
upperback -2.26244 0.545289 1.27307
thorax -3.36104 0.212954 -0.421132
lowerneck -7.98272 -2.31621 -2.54384
upperneck 16.8926 -3.61086 4.62152
head 6.57918 -1.53755 1.60862
rclavicle 1.67725e-015 5.96354e-015
rhumerus -47.39 -1.7699 -88.4298
rradius 40.1222
rwrist 18.5377
rhand -8.13218 -26.3478
rfingers 7.12502
rthumb 17.7816 -55.5548
lclavicle 1.67725e-015 5.96354e-015
lhumerus -42.9122 -0.257952 92.9853
lradius 37.5855
lwrist -6.03782
lhand -4.16088 -23.935
lfingers 7.12502
lthumb 21.5995 4.88035
rfemur 0 0 0
rtibia 0
rfoot 0 0
rtoes 0
lfemur 15.6767 -7.29707 -11.6132
ltibia -18.3179
lfoot -3.9921 19.7371
ltoes -9.04838
9
root -0.945755 18.1965 5.77802 1.92182 -1.49614 -5.18429
lowerback 1.86505 0.301808 3.0305
upperback -2.26436 0.546933 1.27943
thorax -3.36068 0.214169 -0.407423
lowerneck -7.95423 -2.31121 -2.54544
upperneck 16.8805 -3.5976 4.58738
head 6.56923 -1.53451 1.59931
rclavicle 8.80865e-015 2.26615e-014
rhumerus -47.3932 -1.71422 -88.4245
rradius 40.1208
rwrist 18.5157
rhand -8.22003 -26.3977
rfingers 7.12502
rthumb 17.6971 -55.6124
lclavicle 8.80865e-015 2.26615e-014
lhumerus -42.9286 -0.256564 92.9946
lradius 37.5982
lwrist -6.03986
lhand -4.12584 -23.8997
lfingers 7.12502
lthumb 21.6331 4.9118
rfemur 0 0 0
rtibia 0
rfoot 0 0
rtoes 0
lfemur 15.6937 -7.28163 -11.6115
ltibia -18.3226
lfoot -3.98349 19.7194
ltoes -9.19129
10
root -0.945614 18.1954 5.77782 1.90873 -1.50267 -5.19172
lowerback 1.86376 0.306891 3.02205
upperback -2.26066 0.553495 1.28707
thorax -3.35607 0.217837 -0.395144
lowerneck -7.92905 -2.30404 -2.59295
upperneck 16.878 -3.58445 4.60727
head 6.56462 -1.52992 1.61492
rclavicle 2.3233e-015 1.03368e-014
rhumerus -47.3544 -1.72499 -88.4051
rradius 40.0928
rwrist 18.4719
rhand -8.1717 -26.5321
rfingers 7.12502
rthumb 17.7436 -55.7426
lclavicle 2.3233e-015 1.03368e-014
lhumerus -42.9366 -0.250758 92.9971
lradius 37.6066
lwrist -6.04231
lhand -4.05998 -23.9199
lfingers 7.12502
lthumb 21.6964 4.88427
rfemur 0 0 0
rtibia 0
rfoot 0 0
rtoes 0
lfemur 15.7095 -7.24164 -11.6066
ltibia -18.3285
lfoot -3.93884 19.7043
ltoes -9.52572
11
root -0.945057 18.1943 5.77751 1.88476 -1.51522 -5.19351
lowerback 1.86332 0.313654 3.03893
upperback -2.25298 0.562441 1.2731
thorax -3.34736 0.221856 -0.419362
lowerneck -7.95049 -2.31187 -2.63094
upperneck 16.9618 -3.60333 4.66665
head 6.59756 -1.53549 1.63867
rclavicle 1.56543e-014 1.88845e-014
rhumerus -47.3364 -1.7546 -88.411
rradius 40.0933
rwrist 18.4039
rhand -8.08713 -26.5994
rfingers 7.12502
rthumb 17.825 -55.8025
lclavicle 1.56543e-014 1.88845e-014
lhumerus -42.9462 -0.258929 92.9726
lradius 37.6089
lwrist -6.04423
lhand -4.03807 -23.8923
lfingers 7.12502
lthumb 21.7174 4.90946
rfemur 0 0 0
rtibia 0
rfoot 0 0
rtoes 0
lfemur 15.7268 -7.2586 -11.6123
ltibia -18.3172
lfoot -3.9426 19.739
ltoes -9.54283
12
root -0.944684 18.1939 5.77754 1.85674 -1.51253 -5.17065
lowerback 1.84856 0.312312 3.03071
upperback -2.23012 0.558559 1.25601
thorax -3.31535 0.22048 -0.432044
lowerneck -7.98309 -2.31771 -2.66367
upperneck 17.0173 -3.61837 4.72293
head 6.62318 -1.53924 1.66071
rclavicle -6.80837e-015 1.74931e-014
rhumerus -47.3077 -1.75258 -88.4076
rradius 40.0933
rwrist 18.3622
rhand -7.98636 -26.541
rfingers 7.12502
rthumb 17.922 -55.7352
lclavicle -6.80837e-015 1.74931e-014
lhumerus -42.9277 -0.263688 92.9586
lradius 37.5943
lwrist -6.06482
lhand -4.08892 -23.8374
lfingers 7.12502
lthumb 21.6686 4.97001
rfemur 0 0 0
rtibia 0
rfoot 0 0
rtoes 0
lfemur 15.7391 -7.26417 -11.6416
ltibia -18.287
lfoot -3.95914 19.7146
ltoes -9.39346
